<mxfile host="Electron" modified="2023-12-25T07:54:55.270Z" agent="Mozilla/5.0 (Windows NT 10.0; Win64; x64) AppleWebKit/537.36 (KHTML, like Gecko) draw.io/22.1.11 Chrome/114.0.5735.289 Electron/25.9.8 Safari/537.36" etag="wXVOI2luE-5jh0gUkwbk" version="22.1.11" type="device">
  <diagram name="第 1 页" id="jdDSJHYeATOH8R4ccr7q">
    <mxGraphModel dx="1098" dy="828" grid="1" gridSize="10" guides="1" tooltips="1" connect="1" arrows="1" fold="1" page="1" pageScale="1" pageWidth="827" pageHeight="1169" math="0" shadow="0">
      <root>
        <mxCell id="0" />
        <mxCell id="1" parent="0" />
        <mxCell id="CkDnTWFcy2QstvCjm0AF-1" value="IUserInterface" style="swimlane;fontStyle=1;align=center;verticalAlign=top;childLayout=stackLayout;horizontal=1;startSize=26;horizontalStack=0;resizeParent=1;resizeParentMax=0;resizeLast=0;collapsible=1;marginBottom=0;whiteSpace=wrap;html=1;" vertex="1" parent="1">
          <mxGeometry x="334" y="200" width="160" height="138" as="geometry">
            <mxRectangle x="334" y="200" width="120" height="30" as="alternateBounds" />
          </mxGeometry>
        </mxCell>
        <mxCell id="CkDnTWFcy2QstvCjm0AF-3" value="" style="line;strokeWidth=1;fillColor=none;align=left;verticalAlign=middle;spacingTop=-1;spacingLeft=3;spacingRight=3;rotatable=0;labelPosition=right;points=[];portConstraint=eastwest;strokeColor=inherit;" vertex="1" parent="CkDnTWFcy2QstvCjm0AF-1">
          <mxGeometry y="26" width="160" height="8" as="geometry" />
        </mxCell>
        <mxCell id="CkDnTWFcy2QstvCjm0AF-4" value="+Show()" style="text;strokeColor=none;fillColor=none;align=left;verticalAlign=top;spacingLeft=4;spacingRight=4;overflow=hidden;rotatable=0;points=[[0,0.5],[1,0.5]];portConstraint=eastwest;whiteSpace=wrap;html=1;" vertex="1" parent="CkDnTWFcy2QstvCjm0AF-1">
          <mxGeometry y="34" width="160" height="26" as="geometry" />
        </mxCell>
        <mxCell id="CkDnTWFcy2QstvCjm0AF-5" value="+Hide()" style="text;strokeColor=none;fillColor=none;align=left;verticalAlign=top;spacingLeft=4;spacingRight=4;overflow=hidden;rotatable=0;points=[[0,0.5],[1,0.5]];portConstraint=eastwest;whiteSpace=wrap;html=1;" vertex="1" parent="CkDnTWFcy2QstvCjm0AF-1">
          <mxGeometry y="60" width="160" height="26" as="geometry" />
        </mxCell>
        <mxCell id="CkDnTWFcy2QstvCjm0AF-6" value="+IsVisible()" style="text;strokeColor=none;fillColor=none;align=left;verticalAlign=top;spacingLeft=4;spacingRight=4;overflow=hidden;rotatable=0;points=[[0,0.5],[1,0.5]];portConstraint=eastwest;whiteSpace=wrap;html=1;" vertex="1" parent="CkDnTWFcy2QstvCjm0AF-1">
          <mxGeometry y="86" width="160" height="26" as="geometry" />
        </mxCell>
        <mxCell id="CkDnTWFcy2QstvCjm0AF-7" value="+...()" style="text;strokeColor=none;fillColor=none;align=left;verticalAlign=top;spacingLeft=4;spacingRight=4;overflow=hidden;rotatable=0;points=[[0,0.5],[1,0.5]];portConstraint=eastwest;whiteSpace=wrap;html=1;" vertex="1" parent="CkDnTWFcy2QstvCjm0AF-1">
          <mxGeometry y="112" width="160" height="26" as="geometry" />
        </mxCell>
        <mxCell id="CkDnTWFcy2QstvCjm0AF-24" style="edgeStyle=none;rounded=0;orthogonalLoop=1;jettySize=auto;html=1;exitX=0.5;exitY=1;exitDx=0;exitDy=0;entryX=0.25;entryY=0;entryDx=0;entryDy=0;endArrow=diamondThin;endFill=1;" edge="1" parent="1" source="CkDnTWFcy2QstvCjm0AF-8" target="CkDnTWFcy2QstvCjm0AF-18">
          <mxGeometry relative="1" as="geometry" />
        </mxCell>
        <mxCell id="CkDnTWFcy2QstvCjm0AF-33" style="edgeStyle=none;rounded=0;orthogonalLoop=1;jettySize=auto;html=1;exitX=0.5;exitY=0;exitDx=0;exitDy=0;entryX=0.25;entryY=1;entryDx=0;entryDy=0;endArrow=block;endFill=0;" edge="1" parent="1" source="CkDnTWFcy2QstvCjm0AF-8" target="CkDnTWFcy2QstvCjm0AF-1">
          <mxGeometry relative="1" as="geometry" />
        </mxCell>
        <mxCell id="CkDnTWFcy2QstvCjm0AF-8" value="GamePauseUI" style="swimlane;fontStyle=1;align=center;verticalAlign=top;childLayout=stackLayout;horizontal=1;startSize=26;horizontalStack=0;resizeParent=1;resizeParentMax=0;resizeLast=0;collapsible=1;marginBottom=0;whiteSpace=wrap;html=1;" vertex="1" parent="1">
          <mxGeometry x="240" y="440" width="160" height="34" as="geometry" />
        </mxCell>
        <mxCell id="CkDnTWFcy2QstvCjm0AF-10" value="" style="line;strokeWidth=1;fillColor=none;align=left;verticalAlign=middle;spacingTop=-1;spacingLeft=3;spacingRight=3;rotatable=0;labelPosition=right;points=[];portConstraint=eastwest;strokeColor=inherit;" vertex="1" parent="CkDnTWFcy2QstvCjm0AF-8">
          <mxGeometry y="26" width="160" height="8" as="geometry" />
        </mxCell>
        <mxCell id="CkDnTWFcy2QstvCjm0AF-23" style="edgeStyle=none;rounded=0;orthogonalLoop=1;jettySize=auto;html=1;exitX=0.5;exitY=1;exitDx=0;exitDy=0;entryX=0.75;entryY=0;entryDx=0;entryDy=0;endArrow=diamondThin;endFill=1;" edge="1" parent="1" source="CkDnTWFcy2QstvCjm0AF-12" target="CkDnTWFcy2QstvCjm0AF-18">
          <mxGeometry relative="1" as="geometry" />
        </mxCell>
        <mxCell id="CkDnTWFcy2QstvCjm0AF-32" style="edgeStyle=none;rounded=0;orthogonalLoop=1;jettySize=auto;html=1;exitX=0.5;exitY=0;exitDx=0;exitDy=0;entryX=0.75;entryY=1;entryDx=0;entryDy=0;endArrow=block;endFill=0;" edge="1" parent="1" source="CkDnTWFcy2QstvCjm0AF-12" target="CkDnTWFcy2QstvCjm0AF-1">
          <mxGeometry relative="1" as="geometry" />
        </mxCell>
        <mxCell id="CkDnTWFcy2QstvCjm0AF-12" value="GameStateInfoUI" style="swimlane;fontStyle=1;align=center;verticalAlign=top;childLayout=stackLayout;horizontal=1;startSize=26;horizontalStack=0;resizeParent=1;resizeParentMax=0;resizeLast=0;collapsible=1;marginBottom=0;whiteSpace=wrap;html=1;" vertex="1" parent="1">
          <mxGeometry x="440" y="440" width="160" height="34" as="geometry" />
        </mxCell>
        <mxCell id="CkDnTWFcy2QstvCjm0AF-13" value="" style="line;strokeWidth=1;fillColor=none;align=left;verticalAlign=middle;spacingTop=-1;spacingLeft=3;spacingRight=3;rotatable=0;labelPosition=right;points=[];portConstraint=eastwest;strokeColor=inherit;" vertex="1" parent="CkDnTWFcy2QstvCjm0AF-12">
          <mxGeometry y="26" width="160" height="8" as="geometry" />
        </mxCell>
        <mxCell id="CkDnTWFcy2QstvCjm0AF-22" style="edgeStyle=none;rounded=0;orthogonalLoop=1;jettySize=auto;html=1;exitX=0.5;exitY=1;exitDx=0;exitDy=0;entryX=1;entryY=0;entryDx=0;entryDy=0;endArrow=diamondThin;endFill=1;" edge="1" parent="1" source="CkDnTWFcy2QstvCjm0AF-14" target="CkDnTWFcy2QstvCjm0AF-18">
          <mxGeometry relative="1" as="geometry" />
        </mxCell>
        <mxCell id="CkDnTWFcy2QstvCjm0AF-31" style="edgeStyle=none;rounded=0;orthogonalLoop=1;jettySize=auto;html=1;exitX=0.5;exitY=0;exitDx=0;exitDy=0;entryX=1;entryY=1;entryDx=0;entryDy=0;endArrow=block;endFill=0;" edge="1" parent="1" source="CkDnTWFcy2QstvCjm0AF-14" target="CkDnTWFcy2QstvCjm0AF-1">
          <mxGeometry relative="1" as="geometry" />
        </mxCell>
        <mxCell id="CkDnTWFcy2QstvCjm0AF-14" value="SoldierInfoUI" style="swimlane;fontStyle=1;align=center;verticalAlign=top;childLayout=stackLayout;horizontal=1;startSize=26;horizontalStack=0;resizeParent=1;resizeParentMax=0;resizeLast=0;collapsible=1;marginBottom=0;whiteSpace=wrap;html=1;" vertex="1" parent="1">
          <mxGeometry x="640" y="440" width="160" height="34" as="geometry" />
        </mxCell>
        <mxCell id="CkDnTWFcy2QstvCjm0AF-15" value="" style="line;strokeWidth=1;fillColor=none;align=left;verticalAlign=middle;spacingTop=-1;spacingLeft=3;spacingRight=3;rotatable=0;labelPosition=right;points=[];portConstraint=eastwest;strokeColor=inherit;" vertex="1" parent="CkDnTWFcy2QstvCjm0AF-14">
          <mxGeometry y="26" width="160" height="8" as="geometry" />
        </mxCell>
        <mxCell id="CkDnTWFcy2QstvCjm0AF-21" style="edgeStyle=none;rounded=0;orthogonalLoop=1;jettySize=auto;html=1;exitX=0.5;exitY=1;exitDx=0;exitDy=0;entryX=0;entryY=0;entryDx=0;entryDy=0;endArrow=diamondThin;endFill=1;" edge="1" parent="1" source="CkDnTWFcy2QstvCjm0AF-16" target="CkDnTWFcy2QstvCjm0AF-18">
          <mxGeometry relative="1" as="geometry" />
        </mxCell>
        <mxCell id="CkDnTWFcy2QstvCjm0AF-30" style="edgeStyle=none;rounded=0;orthogonalLoop=1;jettySize=auto;html=1;exitX=0.5;exitY=0;exitDx=0;exitDy=0;entryX=0;entryY=1;entryDx=0;entryDy=0;endArrow=block;endFill=0;" edge="1" parent="1" source="CkDnTWFcy2QstvCjm0AF-16" target="CkDnTWFcy2QstvCjm0AF-1">
          <mxGeometry relative="1" as="geometry" />
        </mxCell>
        <mxCell id="CkDnTWFcy2QstvCjm0AF-16" value="CampInfoUI" style="swimlane;fontStyle=1;align=center;verticalAlign=top;childLayout=stackLayout;horizontal=1;startSize=26;horizontalStack=0;resizeParent=1;resizeParentMax=0;resizeLast=0;collapsible=1;marginBottom=0;whiteSpace=wrap;html=1;" vertex="1" parent="1">
          <mxGeometry x="40" y="440" width="160" height="34" as="geometry" />
        </mxCell>
        <mxCell id="CkDnTWFcy2QstvCjm0AF-17" value="" style="line;strokeWidth=1;fillColor=none;align=left;verticalAlign=middle;spacingTop=-1;spacingLeft=3;spacingRight=3;rotatable=0;labelPosition=right;points=[];portConstraint=eastwest;strokeColor=inherit;" vertex="1" parent="CkDnTWFcy2QstvCjm0AF-16">
          <mxGeometry y="26" width="160" height="8" as="geometry" />
        </mxCell>
        <mxCell id="CkDnTWFcy2QstvCjm0AF-18" value="PBaseDefenseGame" style="swimlane;fontStyle=1;align=center;verticalAlign=top;childLayout=stackLayout;horizontal=1;startSize=26;horizontalStack=0;resizeParent=1;resizeParentMax=0;resizeLast=0;collapsible=1;marginBottom=0;whiteSpace=wrap;html=1;" vertex="1" parent="1">
          <mxGeometry x="334" y="580" width="160" height="34" as="geometry" />
        </mxCell>
        <mxCell id="CkDnTWFcy2QstvCjm0AF-19" value="" style="line;strokeWidth=1;fillColor=none;align=left;verticalAlign=middle;spacingTop=-1;spacingLeft=3;spacingRight=3;rotatable=0;labelPosition=right;points=[];portConstraint=eastwest;strokeColor=inherit;" vertex="1" parent="CkDnTWFcy2QstvCjm0AF-18">
          <mxGeometry y="26" width="160" height="8" as="geometry" />
        </mxCell>
      </root>
    </mxGraphModel>
  </diagram>
</mxfile>
